HIERARCHY
ROOT root
{
	OFFSET	0	13.1	24.9
	CHANNELS 6  Xposition Yposition Zposition Xrotation Yrotation Zrotation
	JOINT spine_1
	{
		OFFSET	0	9.99999	0
		CHANNELS 3  Xrotation Yrotation Zrotation
		JOINT spine_2
		{
			OFFSET	0	112	-10
			CHANNELS 3  Xrotation Yrotation Zrotation
			JOINT spine_3
			{
				OFFSET	0	206.5	19.3
				CHANNELS 3  Xrotation Yrotation Zrotation
				JOINT spine_4
				{
					OFFSET	0	110.4	14.6
					CHANNELS 3  Xrotation Yrotation Zrotation
					JOINT neck_1
					{
						OFFSET	0	71.8	-50.3
						CHANNELS 3  Xrotation Yrotation Zrotation
						JOINT neck_2
						{
							OFFSET	0	86.2	-25.8
							CHANNELS 3  Xrotation Yrotation Zrotation
							JOINT head_ee
							{
								OFFSET	0	179.8	-8.7
								CHANNELS 3  Xrotation Yrotation Zrotation
								End Site
								{
									OFFSET	1	0	0
								}
							}
						}
					}
					JOINT left_clavicle
					{
						OFFSET	-43.2	22.4	-70.8
						CHANNELS 3  Xrotation Yrotation Zrotation
						JOINT left_shoulder
						{
							OFFSET	-93.9	-5.79999	48.7
							CHANNELS 3  Xrotation Yrotation Zrotation
							JOINT left_elbow
							{
								OFFSET	-291.4	-30.8	15.2
								CHANNELS 3  Xrotation Yrotation Zrotation
								JOINT left_lowarm_twist
								{
									OFFSET	-110.7	-3.89999	13.6
									CHANNELS 3  Xrotation Yrotation Zrotation
									JOINT left_hand
									{
										OFFSET	-110.7	-3.89999	13.6
										CHANNELS 3  Xrotation Yrotation Zrotation
										JOINT left_ee
										{
											OFFSET	-80.8	-5.10001	12.1
											CHANNELS 3  Xrotation Yrotation Zrotation
											End Site
											{
												OFFSET	1	0	0
											}
										}
									}
								}
							}
						}
					}
					JOINT right_clavicle
					{
						OFFSET	43.2	22.4	-70.8
						CHANNELS 3  Xrotation Yrotation Zrotation
						JOINT right_shoulder
						{
							OFFSET	93.9	-5.79999	48.7
							CHANNELS 3  Xrotation Yrotation Zrotation
							JOINT right_elbow
							{
								OFFSET	291.4	-30.8	15.2
								CHANNELS 3  Xrotation Yrotation Zrotation
								JOINT right_lowarm_twist
								{
									OFFSET	110.7	-3.89999	13.6
									CHANNELS 3  Xrotation Yrotation Zrotation
									JOINT right_hand
									{
										OFFSET	110.7	-3.89999	13.6
										CHANNELS 3  Xrotation Yrotation Zrotation
										JOINT right_ee
										{
											OFFSET	80.8	-5.10001	12.1
											CHANNELS 3  Xrotation Yrotation Zrotation
											End Site
											{
												OFFSET	1	0	0
											}
										}
									}
								}
							}
						}
					}
				}
			}
		}
	}
	JOINT left_hip
	{
		OFFSET	-82.8	-127.5	0.300001
		CHANNELS 3  Xrotation Yrotation Zrotation
		JOINT left_knee
		{
			OFFSET	-28.2	-396.7	2.2
			CHANNELS 3  Xrotation Yrotation Zrotation
			JOINT left_ankle
			{
				OFFSET	-11.7	-411.3	35.4
				CHANNELS 3  Xrotation Yrotation Zrotation
				JOINT left_toes
				{
					OFFSET	0	-60	-88.6
					CHANNELS 3  Xrotation Yrotation Zrotation
					JOINT left_foot_ee
					{
						OFFSET	-22.5	-16.5	-42.2
						CHANNELS 3  Xrotation Yrotation Zrotation
						End Site
						{
							OFFSET	1	0	0
						}
					}
				}
			}
		}
	}
	JOINT right_hip
	{
		OFFSET	82.8	-127.5	0.300001
		CHANNELS 3  Xrotation Yrotation Zrotation
		JOINT right_knee
		{
			OFFSET	28.2	-396.7	2.2
			CHANNELS 3  Xrotation Yrotation Zrotation
			JOINT right_ankle
			{
				OFFSET	11.7	-411.3	35.4
				CHANNELS 3  Xrotation Yrotation Zrotation
				JOINT right_toes
				{
					OFFSET	0	-60	-88.6
					CHANNELS 3  Xrotation Yrotation Zrotation
					JOINT right_foot_ee
					{
						OFFSET	22.5	-16.5	-42.2
						CHANNELS 3  Xrotation Yrotation Zrotation
						End Site
						{
							OFFSET	1	0	0
						}
					}
				}
			}
		}
	}
}
MOTION
Frames: 8
Frame Time: 0.02
391.555 721.904 -1204.45 170.710630327 5.5102576788 175.933965604 -8.867 0.0514295 3.03182 -8.8619 -0.141507 3.02895 -8.85766 -1.21813 2.77703 -8.8676 -0.764469 2.93439 5.16093 4.78696 -2.2089 5.32287 10.1294 -2.31133 -0.0 0.0 -0.0 3.16124 16.2429 6.87893 8.10233 -8.53878 68.0056 0.549847 -15.2367 0.073545 52.3786 -1.14431 -6.36228 -6.63357 -18.2917 -62.9397 -0.0 0.0 -0.0 12.4054 21.203 -24.7761 -5.30007 38.2278 -29.3718 0.601777 16.5996 -0.0877885 -79.6065 7.7719 -5.28487 -8.56815 -30.45 36.4476 0.0 0.0 0.0 4.95298 29.9841 -3.65416 -10.7401 0.291072 1.62014 19.008 7.05361 -2.60699 -32.2319 0.0 0.0 -0.0 0.0 -0.0 -12.0423 1.86394 10.3721 -1.87705 -0.0727231 -0.278871 36.6586 -27.0648 4.90096 20.9794 -0.0 -0.0 0.0 0.0 0.0 
415.09266216 718.319 -1169.71089126 168.948961334 -2.56639260312 172.692620203 -9.0183 0.775471 4.53082 -9.00701 0.485901 4.57087 -8.93516 -1.19155 4.43976 -8.96234 -0.47619 4.57189 1.23489 8.9419 -8.42099 2.0549 22.7591 -8.56096 -0.0 0.0 -0.0 5.74237 12.5275 11.1024 3.48282 -9.01696 64.4628 0.425923 -11.9143 0.0444445 40.2018 -0.359799 -5.01902 -5.18038 -24.0683 -49.0209 -0.0 0.0 -0.0 12.0873 17.0307 -24.3129 -8.74253 43.7411 -29.635 0.53507 14.8455 -0.0697101 -82.6252 8.15383 -5.2367 -9.44005 -19.5925 60.9537 0.0 0.0 0.0 -1.35548 5.56944 4.07278 -8.44892 0.25457 1.27049 15.6521 27.7254 -2.32082 -35.9397 0.0 0.0 -0.0 0.0 -0.0 -13.4856 31.7043 10.538 -24.45 -0.216337 -3.71743 -5.11786 -24.4793 -0.787182 31.6182 -0.0 -0.0 0.0 0.0 0.0 
425.489597083 713.353 -1154.98495763 167.649803889 -5.37196729854 171.869203115 -9.02513 0.92461 4.80637 -9.01249 0.617265 4.8553 -8.92203 -1.17018 4.75267 -8.9533 -0.405843 4.87747 1.596 9.20179 -9.14654 2.55064 23.8067 -9.45497 -0.0 0.0 -0.0 6.31228 10.627 12.1386 3.19899 -9.74241 63.2068 0.225146 -6.36408 0.0125169 38.2993 -0.263773 -4.79548 -4.8671 -26.4647 -46.8675 -0.0 0.0 -0.0 12.2582 15.5143 -24.771 -9.57074 44.4832 -31.2917 0.511053 14.2067 -0.0636859 -82.9167 8.19055 -5.23098 -9.07394 -15.0396 64.0922 0.0 0.0 0.0 -6.09036 1.21517 5.74257 -2.1465 0.0824103 0.319088 13.8235 27.5704 -2.06088 -37.6123 0.0 0.0 -0.0 0.0 -0.0 -9.62248 35.1849 7.70803 -34.9339 0.176308 -5.2762 -14.9164 -28.0372 -2.36908 34.1997 -0.0 -0.0 0.0 0.0 0.0 
435.087737552 709.262 -1141.89601674 167.096414558 -6.28667271797 171.071284564 -9.02445 0.624817 4.91815 -9.01105 0.310988 4.94784 -8.94726 -1.49243 4.72815 -8.97771 -0.727928 4.90398 2.07063 9.3293 -9.60127 3.1325 24.3976 -10.088 -0.0 0.0 -0.0 6.22697 10.7407 11.9854 3.02718 -9.92657 62.8421 0.213628 -6.04098 0.0112724 36.6565 -0.186876 -4.60001 -4.65226 -26.4459 -44.9761 -0.0 0.0 -0.0 11.9567 13.6167 -24.1394 -10.2314 45.9486 -31.905 0.52188 14.4952 -0.0663695 -83.3513 8.24523 -5.22209 -9.15747 -13.345 69.0339 0.0 0.0 0.0 -7.52787 -0.509941 7.00744 -1.6519 0.0644833 0.245299 13.1635 27.1548 -1.96181 -37.7572 0.0 0.0 -0.0 0.0 -0.0 -9.91675 36.9357 7.91679 -41.8554 0.589005 -6.25604 -19.9081 -29.4908 -3.20119 34.7703 -0.0 -0.0 0.0 0.0 0.0 
444.896416907 701.545 -1125.94218881 166.409853965 -6.91809821237 169.806572564 -9.02874 0.622831 4.99423 -9.01492 0.304183 5.02364 -8.95027 -1.52646 4.79631 -8.98158 -0.750816 4.97664 2.99932 10.2258 -8.63649 4.10886 25.1231 -9.17598 -0.0 0.0 -0.0 6.10372 10.9277 11.7645 2.40357 -10.1183 62.6964 0.215688 -6.09881 0.0114903 34.7217 -0.103556 -4.36713 -4.38246 -26.9076 -42.8148 -0.0 0.0 -0.0 11.8889 13.2664 -23.9932 -10.3132 47.0158 -33.1104 0.538913 14.9474 -0.070698 -83.7779 8.29882 -5.21296 -9.17299 -12.4451 71.4671 0.0 0.0 0.0 -9.47408 -0.996859 9.01131 -2.56142 0.0969563 0.381104 13.7488 26.8587 -2.04125 -37.2178 0.0 0.0 -0.0 0.0 -0.0 -9.34521 37.9562 7.12271 -45.6824 0.86727 -6.77472 -22.3579 -31.5608 -3.65037 34.9876 -0.0 -0.0 0.0 0.0 0.0 
452.000295006 698.174 -1116.89127787 165.707476125 -6.9785130738 169.19259229 -9.01475 0.791417 5.14574 -9.00015 0.462828 5.18553 -8.91648 -1.43355 5.00535 -8.95088 -0.62618 5.16839 4.28229 11.1907 -7.02748 5.39455 25.3465 -7.58542 -0.0 0.0 -0.0 5.93019 10.7463 11.465 2.2511 -10.4922 61.7149 0.218471 -6.17689 0.0117877 33.8306 -0.0678401 -4.25896 -4.21503 -26.7739 -41.388 -0.0 0.0 -0.0 11.7169 13.0979 -23.6063 -10.2348 48.0021 -35.2699 0.54148 15.0154 -0.0713615 -84.5382 8.39416 -5.19569 -9.12743 -11.7627 72.0859 0.0 0.0 0.0 -9.99821 -1.27922 8.98829 -3.8292 0.138612 0.571209 14.5844 27.2467 -2.16418 -37.2293 0.0 0.0 -0.0 0.0 -0.0 -9.47762 37.6032 7.12843 -47.563 1.01661 -7.02263 -23.6783 -30.5576 -3.83896 35.3577 -0.0 -0.0 0.0 0.0 0.0 
456.628175776 699.002 -1103.82206206 164.579801077 -7.2447128524 168.914021758 -8.98255 1.03051 5.23544 -8.96758 0.695753 5.29019 -8.85802 -1.24785 5.18806 -8.89532 -0.41405 5.31958 5.7005 12.732 -4.62515 6.80112 25.7678 -5.04607 -0.0 0.0 -0.0 5.71046 10.4455 11.0852 2.00454 -11.0183 60.327 0.228409 -6.45556 0.0128812 32.5761 -0.0204257 -4.10579 -3.98068 -26.5252 -39.4105 -0.0 0.0 -0.0 11.4993 12.8572 -23.1193 -9.89984 49.403 -38.7142 0.548527 15.2018 -0.0731983 -85.27 8.48566 -5.17787 -9.06239 -10.7859 72.9423 0.0 0.0 0.0 -10.9834 -1.7159 9.19119 -5.67941 0.191824 0.850158 15.7741 27.6248 -2.33637 -37.2475 0.0 0.0 -0.0 0.0 -0.0 -8.69747 37.1604 6.48014 -49.6358 1.1906 -7.29015 -24.5296 -28.0969 -3.91319 36.1117 -0.0 -0.0 0.0 0.0 0.0 
479.646423459 696.092 -1095.21349498 165.673731649 -8.92778391396 170.099602627 -8.75073 1.12169 5.10448 -8.73659 0.795054 5.16529 -8.62166 -1.08868 5.1116 -8.658 -0.268889 5.21905 4.71759 13.8722 -3.37283 5.75421 26.7983 -3.35903 -0.0 0.0 -0.0 5.3084 10.1123 10.383 4.29625 -12.0626 59.0011 0.286835 -8.08719 0.0202768 30.4279 0.0529305 -3.84126 -3.77877 -26.7794 -37.8845 -0.0 0.0 -0.0 11.7599 14.9769 -23.6507 -11.6978 49.3902 -39.0759 0.577284 15.9591 -0.0809224 -85.0189 8.4543 -5.18412 -9.02719 -9.88468 74.3562 0.0 0.0 0.0 -10.7813 -2.13578 9.81685 -3.5677 0.130364 0.531923 15.4637 28.3424 -2.30369 -38.0516 0.0 0.0 -0.0 0.0 -0.0 -7.07723 36.2494 6.37339 -48.7782 1.11743 -7.18021 -25.3109 -26.8806 -4.00858 38.0614 -0.0 -0.0 0.0 0.0 0.0 
